<svg viewBox="0 0 12 12" fill="none" xmlns="http://www.w3.org/2000/svg">
<path d="M9.89532 7.46491C8.86532 8.48991 7.39032 8.80491 6.09532 8.39991L3.74032 10.7499C3.57032 10.9249 3.23532 11.0299 2.99532 10.9949L1.90532 10.8449C1.54532 10.7949 1.21032 10.4549 1.15532 10.0949L1.00532 9.00491C0.970317 8.76491 1.08532 8.42991 1.25032 8.25991L3.60032 5.90991C3.20032 4.60991 3.51032 3.13491 4.54032 2.10991C6.01532 0.634912 8.41032 0.634912 9.89032 2.10991C11.3703 3.58491 11.3703 5.98991 9.89532 7.46491Z" stroke="currentColor" stroke-miterlimit="10" stroke-linecap="round" stroke-linejoin="round"/>
<path d="M3.44531 8.74512L4.59531 9.89512" stroke="currentColor" stroke-miterlimit="10" stroke-linecap="round" stroke-linejoin="round"/>
<path d="M7.25 5.5C7.66421 5.5 8 5.16421 8 4.75C8 4.33579 7.66421 4 7.25 4C6.83579 4 6.5 4.33579 6.5 4.75C6.5 5.16421 6.83579 5.5 7.25 5.5Z" stroke="currentColor" stroke-linecap="round" stroke-linejoin="round"/>
</svg>
